<svg xmlns="http://www.w3.org/2000/svg" xmlns:xlink="http://www.w3.org/1999/xlink" width="56" zoomAndPan="magnify" viewBox="0 0 42 42" height="56" preserveAspectRatio="xMidYMid meet" version="1.0"><defs><clipPath id="6d76436f77"><path d="M 9.742188 10.449219 L 24 10.449219 L 24 30.230469 L 9.742188 30.230469 Z M 9.742188 10.449219 " clip-rule="nonzero"/></clipPath><clipPath id="5e68374125"><path d="M 29.242188 14.972656 L 32.441406 14.972656 L 32.441406 27.769531 L 29.242188 27.769531 Z M 29.242188 14.972656 " clip-rule="nonzero"/></clipPath></defs><g clip-path="url(#6d76436f77)"><path fill="#017ea1" d="M 21.839844 13.792969 C 20.675781 12.203125 19.203125 11.214844 17.457031 10.855469 C 15.484375 10.449219 13.617188 10.8125 12.203125 11.871094 C 10.949219 12.8125 10.375 14.027344 10.109375 14.882812 C 10.035156 15.117188 10.171875 15.363281 10.414062 15.433594 C 10.652344 15.503906 10.90625 15.371094 10.980469 15.136719 C 11.207031 14.410156 11.699219 13.371094 12.757812 12.574219 C 13.957031 11.675781 15.558594 11.371094 17.269531 11.726562 C 18.78125 12.035156 20.070312 12.90625 21.097656 14.308594 C 22.238281 15.867188 22.425781 17.339844 22.378906 18.304688 C 22.265625 20.746094 20.617188 22.390625 20.289062 22.691406 C 19.667969 23.269531 19.007812 23.65625 18.429688 23.996094 C 17.636719 24.464844 16.953125 24.867188 16.664062 25.570312 C 16.5 25.964844 16.347656 26.371094 16.210938 26.726562 C 16.0625 27.121094 15.890625 27.566406 15.828125 27.671875 C 15.558594 28.125 14.804688 29.183594 13.566406 29.316406 C 13.359375 29.339844 12.28125 29.410156 11.519531 28.617188 C 10.910156 27.984375 10.722656 27.039062 11.03125 26.15625 C 11.113281 25.925781 10.984375 25.671875 10.746094 25.59375 C 10.507812 25.515625 10.25 25.636719 10.167969 25.871094 C 9.75 27.066406 10.015625 28.351562 10.855469 29.226562 C 11.753906 30.15625 12.945312 30.230469 13.457031 30.210938 C 13.550781 30.207031 13.621094 30.203125 13.664062 30.199219 C 14.390625 30.121094 15.0625 29.816406 15.65625 29.289062 C 16.117188 28.882812 16.429688 28.425781 16.617188 28.117188 C 16.710938 27.953125 16.835938 27.632812 17.0625 27.035156 C 17.199219 26.683594 17.351562 26.285156 17.507812 25.902344 C 17.683594 25.472656 18.21875 25.15625 18.898438 24.757812 C 19.519531 24.390625 20.222656 23.976562 20.914062 23.335938 C 21.289062 22.992188 23.160156 21.128906 23.289062 18.34375 C 23.339844 17.242188 23.128906 15.558594 21.839844 13.792969 " fill-opacity="1" fill-rule="nonzero"/></g><path fill="#017ea1" d="M 11.941406 21.394531 C 11.671875 21.667969 11.394531 21.949219 11.386719 22.441406 C 11.371094 23.144531 11.898438 23.789062 13.003906 24.414062 C 13.078125 24.457031 13.164062 24.476562 13.246094 24.476562 C 13.398438 24.46875 13.542969 24.390625 13.625 24.253906 C 13.75 24.042969 13.675781 23.769531 13.460938 23.648438 C 12.703125 23.21875 12.289062 22.796875 12.292969 22.460938 C 12.296875 22.328125 12.359375 22.253906 12.597656 22.011719 C 12.816406 21.789062 13.117188 21.484375 13.371094 20.984375 C 13.859375 20.019531 13.832031 19.03125 13.761719 18.410156 C 14.863281 18.164062 15.589844 18.433594 16.015625 18.707031 C 16.589844 19.082031 16.851562 19.617188 16.90625 19.996094 C 17.042969 20.980469 16.808594 21.714844 16.25 22.0625 L 16.238281 22.070312 C 16.027344 22.203125 15.964844 22.480469 16.101562 22.683594 C 16.191406 22.820312 16.34375 22.890625 16.5 22.886719 C 16.578125 22.882812 16.660156 22.859375 16.730469 22.816406 L 16.742188 22.808594 C 17.246094 22.492188 18.058594 21.691406 17.808594 19.875 C 17.703125 19.140625 17.222656 18.429688 16.519531 17.96875 C 15.953125 17.601562 14.996094 17.238281 13.613281 17.535156 C 13.507812 17.128906 13.375 16.847656 13.269531 16.625 C 13.140625 16.347656 13.078125 16.222656 13.121094 15.988281 C 13.265625 15.160156 14.386719 14.472656 15.347656 14.3125 C 16.894531 14.054688 18.609375 15.066406 19.25 16.613281 C 19.941406 18.28125 19.035156 19.839844 18.847656 20.132812 C 18.714844 20.34375 18.78125 20.617188 18.992188 20.746094 C 19.207031 20.875 19.488281 20.8125 19.621094 20.601562 C 19.847656 20.242188 20.949219 18.347656 20.09375 16.285156 C 19.714844 15.367188 19.011719 14.566406 18.109375 14.035156 C 17.191406 13.488281 16.15625 13.277344 15.195312 13.4375 C 13.917969 13.652344 12.445312 14.566406 12.222656 15.839844 C 12.136719 16.347656 12.292969 16.679688 12.445312 17 C 12.578125 17.28125 12.730469 17.597656 12.8125 18.175781 C 12.882812 18.65625 13.03125 19.65625 12.558594 20.589844 C 12.363281 20.96875 12.140625 21.195312 11.941406 21.394531 " fill-opacity="1" fill-rule="nonzero"/><g clip-path="url(#5e68374125)"><path fill="#017ea1" d="M 29.328125 27.570312 C 29.332031 27.574219 29.335938 27.578125 29.335938 27.578125 C 29.5 27.804688 29.835938 27.824219 30.023438 27.617188 C 30.742188 26.816406 31.316406 25.914062 31.726562 24.925781 C 32.203125 23.785156 32.441406 22.582031 32.441406 21.34375 C 32.441406 20.109375 32.203125 18.902344 31.726562 17.761719 C 31.324219 16.796875 30.769531 15.910156 30.070312 15.125 C 29.894531 14.929688 29.582031 14.925781 29.40625 15.117188 C 29.253906 15.277344 29.25 15.523438 29.398438 15.6875 C 32.289062 18.941406 32.277344 23.804688 29.359375 27.042969 C 29.226562 27.191406 29.214844 27.410156 29.328125 27.570312 " fill-opacity="1" fill-rule="nonzero"/></g><path fill="#017ea1" d="M 27.28125 17.546875 L 27.28125 17.550781 C 29.128906 19.65625 29.195312 22.726562 27.476562 24.902344 C 27.367188 25.046875 27.355469 25.242188 27.453125 25.394531 C 27.617188 25.65625 27.996094 25.671875 28.1875 25.429688 C 28.558594 24.957031 28.863281 24.4375 29.09375 23.882812 C 29.429688 23.074219 29.597656 22.222656 29.597656 21.34375 C 29.597656 20.46875 29.429688 19.613281 29.09375 18.804688 C 28.816406 18.144531 28.4375 17.53125 27.960938 16.988281 C 27.828125 16.832031 27.601562 16.789062 27.417969 16.882812 C 27.164062 17.007812 27.097656 17.328125 27.273438 17.542969 C 27.277344 17.542969 27.277344 17.546875 27.28125 17.546875 " fill-opacity="1" fill-rule="nonzero"/><path fill="#017ea1" d="M 25.332031 19.609375 C 26.042969 20.652344 26.042969 22.035156 25.332031 23.078125 C 25.210938 23.253906 25.242188 23.492188 25.40625 23.636719 C 25.609375 23.8125 25.921875 23.769531 26.070312 23.550781 C 26.246094 23.296875 26.390625 23.023438 26.5 22.738281 C 26.671875 22.292969 26.757812 21.824219 26.757812 21.34375 C 26.757812 20.863281 26.671875 20.394531 26.5 19.949219 C 26.390625 19.664062 26.246094 19.390625 26.070312 19.132812 C 25.917969 18.914062 25.605469 18.875 25.40625 19.050781 C 25.242188 19.195312 25.207031 19.433594 25.332031 19.609375 " fill-opacity="1" fill-rule="nonzero"/></svg>