<?xml version="1.0" encoding="utf-8"?>
<!-- Generator: Adobe Illustrator 26.0.1, SVG Export Plug-In . SVG Version: 6.00 Build 0)  -->
<svg version="1.1" id="Layer_1" xmlns="http://www.w3.org/2000/svg" xmlns:xlink="http://www.w3.org/1999/xlink" x="0px" y="0px"
	 viewBox="0 0 56 56" style="enable-background:new 0 0 56 56;" xml:space="preserve">
<style type="text/css">
	.st0{fill:#E31837;}
	.st1{fill-rule:evenodd;clip-rule:evenodd;fill:#E31837;}
</style>
<g>
	<path class="st0" d="M28,21c2.2,0,4-1.8,4-4s-1.8-4-4-4s-4,1.8-4,4S25.8,21,28,21z"/>
	<path class="st0" d="M30.5,30c0,1.1,0.2,2.2,0.7,3.2l3.7,8.7c0.3,0.8,0,1.6-0.8,2c-0.8,0.3-1.6,0-2-0.8l-3.7-8.7
		c0-0.1-0.1-0.1-0.1-0.2C28.3,34.1,28.1,34,28,34c-0.2,0-0.3,0.1-0.3,0.2c-0.1,0.2-0.2,0.4-0.2,0.6l-3.5,8.2c-0.3,0.8-1.2,1.1-2,0.8
		c-0.8-0.3-1.1-1.2-0.8-2l3.5-8.2c0.6-1.3,0.8-2.7,0.8-4.1v-2.7c-3.6-0.4-6.9-1.7-9.8-3.6c-0.7-0.5-0.9-1.4-0.4-2.1s1.4-0.9,2.1-0.4
		c3,2,6.7,3.2,10.6,3.2s7.6-1.2,10.6-3.2c0.7-0.5,1.6-0.3,2.1,0.4s0.3,1.6-0.4,2.1c-2.9,1.9-6.2,3.2-9.8,3.6L30.5,30z"/>
	<path class="st1" d="M52,28c0,13.3-10.7,24-24,24S4,41.3,4,28S14.7,4,28,4S52,14.7,52,28z M49,28c0,11.6-9.4,21-21,21S7,39.6,7,28
		S16.4,7,28,7S49,16.4,49,28z"/>
</g>
</svg>
