<?xml version="1.0" encoding="utf-8"?>
<!-- Generator: Adobe Illustrator 26.0.1, SVG Export Plug-In . SVG Version: 6.00 Build 0)  -->
<svg version="1.1" id="Dart" xmlns="http://www.w3.org/2000/svg" xmlns:xlink="http://www.w3.org/1999/xlink" x="0px" y="0px"
	 viewBox="0 0 512 512" style="enable-background:new 0 0 512 512;" xml:space="preserve">
<style type="text/css">
	.st0{fill:#E31837;}
</style>
<g>
	<path class="st0" d="M242.6,394.8c-79.3,0-143.8-64.5-143.8-143.8c0-79.3,64.5-143.8,143.8-143.8c79.3,0,143.8,64.5,143.8,143.8
		c0,30-9.2,57.8-25,80.9l28.6,27.6c22.3-30.4,35.4-67.9,35.4-108.5c0-101.5-82.3-183.8-183.8-183.8S58,149.4,58,250.9
		c0,101.5,82.3,183.8,183.8,183.8c47.8,0,91.3-18.2,124-48.1l-30.9-25.5C309.9,382.1,277.7,394.8,242.6,394.8z"/>
	<path class="st0" d="M332.2,303.7c9.1-15.5,14.3-33.5,14.3-52.7c0-57.5-46.6-104.1-104.1-104.1c-57.5,0-104.1,46.6-104.1,104.1
		c0,57.5,46.6,104.1,104.1,104.1c22.8,0,43.9-7.3,61.1-19.8l-37-30.6c-7.1,3.1-15,4.8-23.3,4.8c-32.4,0-58.6-26.2-58.6-58.6
		c0-32.4,26.2-58.6,58.6-58.6c32.4,0,58.6,26.2,58.6,58.6c0,7-1.3,13.8-3.5,20L332.2,303.7z"/>
	<path class="st0" d="M453.7,405.2l-32.6-31.6c0.4-0.5-2.3-1.5-5-1.6l-26.2,3.9l-1.7-1.6l-104.8-101l0.2-0.3
		c0.7-0.8,0.6-1.9-0.1-2.6l0,0c-0.8-0.7-1.9-0.6-2.6,0.1l-0.3,0.3c-3.9-2.6-8.9-2.6-12.8-0.1l-24.9-19.2c-0.2-0.2-0.6,0-1,0.4l0,0
		c-0.3,0.4-0.4,0.8-0.3,1l22,22.6c-1.9,4.1-1.3,9,1.7,12.4l-0.3,0.3c-0.7,0.8-0.6,1.9,0.1,2.6l0,0c0.8,0.7,1.9,0.6,2.6-0.1l0.2-0.3
		l112.3,92.6l4.2,3.5l-2.5-2.1l-0.9,26.1c-0.1,2.1,0.9,4.2,2.5,5.5l34.8,28.6c0.7,0.6,1.7,0.1,1.7-0.8l-0.3-28l13.4,11.1
		c0.7,0.6,1.5,0.8,2.3,0.7c0.5,0,1-0.2,1.4-0.5c0.1-0.1,0.2-0.1,0.3-0.2c0,0,0.1-0.1,0.1-0.1c0.1-0.1,0.3-0.2,0.4-0.4l0,0
		c0,0,0,0,0,0l0,0c0,0,0,0,0,0l0,0c0.2-0.3,0.4-0.6,0.6-0.9c0-0.1,0.1-0.1,0.1-0.2c0,0,0,0,0,0c0.1-0.4,0.2-0.8,0.2-1.2
		c0-0.8-0.4-1.6-1-2.2l-8.4-8.1l-4-3.9l27.8-2.9C454,406.9,454.4,405.8,453.7,405.2z"/>
</g>
</svg>
