<?xml version="1.0" encoding="utf-8"?>
<!-- Generator: Adobe Illustrator 26.0.1, SVG Export Plug-In . SVG Version: 6.00 Build 0)  -->
<svg version="1.1" id="Layer_1" xmlns="http://www.w3.org/2000/svg" xmlns:xlink="http://www.w3.org/1999/xlink" x="0px" y="0px"
	 viewBox="0 0 512 512" style="enable-background:new 0 0 512 512;" xml:space="preserve">
<style type="text/css">
	.st0{fill:#E31837;}
</style>
<g>
	<g>
		<g>
			<path class="st0" d="M401.2,52H307H205h-94.2C78.3,52,52,78.3,52,110.8v290.5c0,32.5,26.3,58.8,58.8,58.8H205c9.4,0,17-7.6,17-17
				c0-9.4-7.6-17-17-17h-94.2C97.1,426,86,414.9,86,401.2V110.8C86,97.1,97.1,86,110.8,86H188v85c0,13.6,15.1,21.7,26.4,14.1
				l41.6-27.7l41.6,27.7c11.3,7.5,26.4-0.6,26.4-14.1V86h77.2c13.7,0,24.8,11.1,24.8,24.8V171c0,9.4,7.6,17,17,17s17-7.6,17-17
				v-60.2C460,78.3,433.7,52,401.2,52z M290,139.2l-24.6-16.4c-5.7-3.8-13.1-3.8-18.9,0L222,139.2V86h68V139.2z"/>
			<path class="st0" d="M382.6,291.8c-8.4-4.2-18.6-0.8-22.8,7.6l-23.5,46.9L319,329c-6.6-6.6-17.4-6.6-24,0c-6.6,6.6-6.6,17.4,0,24
				l34,34c0,0,0.1,0,0.1,0.1c0.3,0.3,0.6,0.5,0.9,0.8c0.1,0.1,0.3,0.3,0.4,0.4c0.2,0.2,0.5,0.3,0.7,0.5c0.2,0.2,0.5,0.3,0.7,0.5
				c0.2,0.1,0.3,0.2,0.5,0.3c0.3,0.2,0.7,0.4,1,0.6c0,0,0.1,0,0.1,0.1c0.1,0.1,0.2,0.1,0.4,0.2c0.4,0.2,0.7,0.3,1.1,0.5
				c0.2,0.1,0.4,0.1,0.6,0.2c0.3,0.1,0.6,0.2,0.9,0.3c0.3,0.1,0.5,0.1,0.8,0.2c0.3,0.1,0.5,0.1,0.8,0.2c0.3,0.1,0.6,0.1,0.9,0.1
				c0.2,0,0.4,0.1,0.7,0.1c0.3,0,0.7,0,1,0c0.2,0,0.4,0,0.7,0c0.3,0,0.6,0,0.9,0c0.2,0,0.5,0,0.7-0.1c0.3,0,0.6-0.1,0.8-0.1
				c0.3,0,0.6-0.1,0.8-0.1c0.2-0.1,0.5-0.1,0.7-0.2c0.3-0.1,0.6-0.2,0.9-0.3c0.2-0.1,0.4-0.1,0.6-0.2c0.3-0.1,0.6-0.2,0.9-0.4
				c0.2-0.1,0.4-0.2,0.6-0.3c0.3-0.1,0.6-0.3,0.9-0.4c0.2-0.1,0.4-0.3,0.7-0.4c0.2-0.1,0.5-0.3,0.7-0.4c0.3-0.2,0.5-0.4,0.8-0.6
				c0.2-0.1,0.4-0.3,0.5-0.4c0.3-0.2,0.6-0.5,0.9-0.8c0.1-0.1,0.2-0.2,0.3-0.3c0,0,0-0.1,0.1-0.1c0.3-0.3,0.5-0.6,0.8-0.9
				c0.1-0.1,0.3-0.3,0.4-0.4c0.2-0.2,0.3-0.5,0.5-0.7c0.2-0.2,0.3-0.5,0.5-0.7c0.1-0.2,0.2-0.3,0.3-0.5c0.2-0.3,0.4-0.7,0.6-1
				c0,0,0-0.1,0.1-0.1l34-68C394.4,306.2,391,296,382.6,291.8z"/>
			<path class="st0" d="M341,222c-65.7,0-119,53.3-119,119s53.3,119,119,119s119-53.3,119-119S406.7,222,341,222z M341,426
				c-46.9,0-85-38.1-85-85c0-46.9,38.1-85,85-85s85,38.1,85,85C426,387.9,387.9,426,341,426z"/>
		</g>
	</g>
</g>
</svg>
