<?xml version="1.0" encoding="utf-8"?>
<!-- Generator: Adobe Illustrator 26.0.1, SVG Export Plug-In . SVG Version: 6.00 Build 0)  -->
<svg version="1.1" id="Layer_1" xmlns="http://www.w3.org/2000/svg" xmlns:xlink="http://www.w3.org/1999/xlink" x="0px" y="0px"
	 viewBox="0 0 1000 1000" style="enable-background:new 0 0 1000 1000;" xml:space="preserve">
<style type="text/css">
	.st0{fill:#E31837;stroke:#E31837;stroke-width:15;stroke-miterlimit:10;}
</style>
<g>
	<path class="st0" d="M133.3,231.6c0-54,44.2-98.3,98.4-98.3h536.5c54.2,0,98.4,44.2,98.4,98.2v536.7c0,54.2-44.2,98.4-98.4,98.4
		H231.8c-54.2,0.1-98.4-44.2-98.4-98.4V231.6z M231.8,900h536.5c72.7,0,131.8-59.1,131.8-131.8V231.6c0-72.5-59.1-131.6-131.8-131.6
		H231.6C159.1,100,100,159.1,100,231.6v536.7C100,840.9,159.1,900,231.8,900z"/>
	<path class="st0" d="M358.4,233.3c19.3,16.7,41.1,29.6,64.5,38.2l-33.8,67.6c-4,8.4-0.7,18.4,7.6,22.4c8.2,4.2,18.2,0.9,22.4-7.3
		l36.7-73.3c14.4,3.1,29.1,4.7,44.2,4.7c52.7,0,102.2-18.4,141.6-52.2l98.4,98.3c-65.8,60-150.2,92.9-240,92.9s-174.2-32.9-240-92.9
		L358.4,233.3z M500,457.8c104.2,0,202-40.5,275.5-114c6.4-6.7,6.4-17.1,0-23.6L653.8,198.4c-3.1-3.3-7.6-4.9-11.8-4.9
		c-4.2,0-8.4,1.6-11.8,4.9c-34.7,34.7-80.9,53.8-130.2,53.8s-95.5-19.1-130.2-53.8c-6.7-6.7-17.1-6.7-23.5,0L224.5,320.2
		c-6.7,6.4-6.7,16.9,0,23.6C297.8,417.3,395.8,457.8,500,457.8z"/>
</g>
</svg>
