<?xml version="1.0" encoding="utf-8"?>
<!-- Generator: Adobe Illustrator 26.0.1, SVG Export Plug-In . SVG Version: 6.00 Build 0)  -->
<svg version="1.1" id="Layer_1" xmlns="http://www.w3.org/2000/svg" xmlns:xlink="http://www.w3.org/1999/xlink" x="0px" y="0px"
	 viewBox="0 0 1024 1024" style="enable-background:new 0 0 1024 1024;" xml:space="preserve">
<style type="text/css">
	.st0{fill:#E31837;}
</style>
<path class="st0" d="M938.8,590.8L938.8,590.8L834.5,884.5l-0.3-0.1c-16,36.4-52.3,61.9-94.6,61.9l-289.6,0
	c-22.8,0-41.4-18.5-41.4-41.4s18.5-41.4,41.4-41.4h188.2c0,0,0-0.1,0-0.1l100.8,0c0.2,0,0.4,0.1,0.6,0.1c8.9,0,16.4-5.7,19.3-13.6
	l0.3-0.2l99.7-280.5l-0.2-0.2c3.1-8.1,5-16.8,5-26c0-39.7-32-71.9-71.6-72.3l-0.6-0.9v0.9l-115.1,0c-49.3,0-71.7-37.3-56.2-70.9
	c15.5-33.6,16-172.7,16-177.3v-20.7c0-22.8-18.5-41.4-41.4-41.4c-22.8,0-41.4,18.5-41.4,41.4v20.7c0,134.4-98.7,245.4-227.5,265.4
	V905c0,22.8-18.5,41.4-41.4,41.4H119c-22.8,0-41.4-18.5-41.4-41.4V449.9c0-22.9,18.5-41.4,41.4-41.4h165.5
	c102.8,0,186.2-83.3,186.2-186.2v-20.7c0-68.5,55.6-124.1,124.1-124.1s124.1,55.6,124.1,124.1v20.7c0,21.4-4.7,145.5-9.4,165.5h81.8
	c85.7,0,155.1,69.5,155.1,155.1C946.4,559.7,943.7,575.8,938.8,590.8z M243.1,491.3h-82.7v372.3h82.7V491.3z"/>
</svg>
