<svg xmlns="http://www.w3.org/2000/svg" xmlns:xlink="http://www.w3.org/1999/xlink" width="56" zoomAndPan="magnify" viewBox="0 0 42 42" height="56" preserveAspectRatio="xMidYMid meet" version="1.0"><defs><clipPath id="e8591a73fa"><path d="M 27 20 L 31.953125 20 L 31.953125 28 L 27 28 Z M 27 20 " clip-rule="nonzero"/></clipPath><clipPath id="e7a448c10d"><path d="M 11 10.382812 L 28 10.382812 L 28 30.894531 L 11 30.894531 Z M 11 10.382812 " clip-rule="nonzero"/></clipPath></defs><g clip-path="url(#e8591a73fa)"><path fill="#fa743e" d="M 31.84375 23.753906 C 31.847656 24.085938 31.585938 24.355469 31.257812 24.355469 L 28.316406 24.363281 C 27.988281 24.363281 27.726562 24.09375 27.726562 23.765625 C 27.726562 23.433594 27.988281 23.167969 28.3125 23.164062 L 31.253906 23.15625 C 31.578125 23.15625 31.84375 23.421875 31.84375 23.753906 Z M 30.910156 20.472656 C 31.050781 20.769531 30.925781 21.125 30.632812 21.269531 L 27.972656 22.550781 C 27.679688 22.691406 27.328125 22.566406 27.191406 22.265625 C 27.050781 21.96875 27.175781 21.613281 27.46875 21.46875 L 30.125 20.1875 C 30.421875 20.046875 30.769531 20.171875 30.910156 20.472656 Z M 30.925781 27.042969 C 31.0625 26.742188 30.9375 26.386719 30.644531 26.246094 L 27.980469 24.976562 C 27.683594 24.835938 27.335938 24.964844 27.199219 25.265625 C 27.058594 25.566406 27.1875 25.921875 27.480469 26.058594 L 30.144531 27.328125 C 30.4375 27.46875 30.789062 27.339844 30.925781 27.042969 Z M 30.925781 27.042969 " fill-opacity="1" fill-rule="nonzero"/></g><g clip-path="url(#e7a448c10d)"><path fill="#017ea1" d="M 27.21875 18.800781 C 26.382812 18.550781 25.636719 17.875 25.375 17.453125 C 24.925781 16.734375 25.464844 16.546875 25.285156 14.53125 C 25.117188 12.6875 22.617188 10.703125 19.582031 10.503906 C 18.199219 10.410156 16.765625 10.699219 15.292969 11.515625 C 11.515625 13.613281 10.019531 18.054688 12.9375 22.339844 C 15.566406 26.203125 13.097656 27.949219 13.097656 27.949219 C 13.097656 27.949219 13.195312 28.761719 14.8125 29.855469 C 16.429688 30.945312 18.414062 30.207031 18.414062 30.207031 C 18.414062 30.207031 19.070312 27.839844 21.210938 28.058594 C 22.742188 28.289062 24.898438 27.980469 25.441406 27.445312 C 25.949219 26.945312 25.351562 26.320312 25.757812 24.921875 C 24.367188 24.78125 23.601562 24.109375 23.527344 23.15625 C 25.074219 23.308594 25.710938 22.8125 26.152344 22.261719 C 26.140625 21.941406 26.109375 21.253906 26.078125 20.796875 C 27.445312 20.394531 27.96875 19.023438 27.21875 18.800781 Z M 27.21875 18.800781 " fill-opacity="1" fill-rule="nonzero"/></g></svg>