<svg xmlns="http://www.w3.org/2000/svg" xmlns:xlink="http://www.w3.org/1999/xlink" width="56" zoomAndPan="magnify" viewBox="0 0 42 42" height="56" preserveAspectRatio="xMidYMid meet" version="1.0"><defs><clipPath id="62c74cc15d"><path d="M 0.488281 2.179688 L 25 2.179688 L 25 38.808594 L 0.488281 38.808594 Z M 0.488281 2.179688 " clip-rule="nonzero"/></clipPath><clipPath id="4b5d73afdc"><path d="M 35.714844 10.554688 L 41.496094 10.554688 L 41.496094 34.257812 L 35.714844 34.257812 Z M 35.714844 10.554688 " clip-rule="nonzero"/></clipPath></defs><g clip-path="url(#62c74cc15d)"><path fill="#017ea1" d="M 22.34375 8.375 C 20.238281 5.429688 17.578125 3.597656 14.429688 2.933594 C 10.859375 2.179688 7.488281 2.847656 4.933594 4.816406 C 2.671875 6.554688 1.628906 8.804688 1.152344 10.386719 C 1.023438 10.824219 1.269531 11.28125 1.703125 11.410156 C 2.136719 11.542969 2.597656 11.296875 2.726562 10.863281 C 3.132812 9.511719 4.023438 7.589844 5.9375 6.117188 C 8.105469 4.449219 11 3.886719 14.089844 4.539062 C 16.820312 5.117188 19.148438 6.726562 21.003906 9.328125 C 23.0625 12.210938 23.398438 14.941406 23.316406 16.726562 C 23.113281 21.25 20.136719 24.289062 19.542969 24.851562 C 18.417969 25.917969 17.230469 26.636719 16.179688 27.269531 C 14.75 28.132812 13.515625 28.878906 12.992188 30.183594 C 12.699219 30.914062 12.421875 31.660156 12.175781 32.324219 C 11.90625 33.050781 11.597656 33.875 11.484375 34.074219 C 11 34.910156 9.636719 36.875 7.398438 37.117188 C 7.023438 37.160156 5.078125 37.289062 3.703125 35.824219 C 2.597656 34.652344 2.257812 32.902344 2.816406 31.265625 C 2.964844 30.835938 2.734375 30.371094 2.304688 30.222656 C 1.875 30.078125 1.40625 30.304688 1.261719 30.734375 C 0.507812 32.949219 0.984375 35.332031 2.503906 36.949219 C 4.121094 38.671875 6.273438 38.808594 7.203125 38.777344 C 7.371094 38.769531 7.5 38.757812 7.578125 38.75 C 8.890625 38.609375 10.101562 38.042969 11.175781 37.066406 C 12.003906 36.3125 12.574219 35.46875 12.90625 34.898438 C 13.082031 34.59375 13.304688 34 13.714844 32.894531 C 13.957031 32.242188 14.234375 31.503906 14.519531 30.792969 C 14.835938 30 15.804688 29.414062 17.03125 28.675781 C 18.152344 27.996094 19.417969 27.230469 20.671875 26.042969 C 21.347656 25.40625 24.726562 21.953125 24.960938 16.800781 C 25.054688 14.757812 24.675781 11.636719 22.34375 8.375 " fill-opacity="1" fill-rule="nonzero"/></g><path fill="#017ea1" d="M 4.464844 22.449219 C 3.976562 22.953125 3.476562 23.476562 3.457031 24.390625 C 3.433594 25.691406 4.386719 26.886719 6.378906 28.042969 C 6.519531 28.121094 6.671875 28.15625 6.820312 28.152344 C 7.09375 28.140625 7.355469 27.996094 7.503906 27.742188 C 7.730469 27.351562 7.597656 26.847656 7.207031 26.621094 C 5.835938 25.828125 5.089844 25.042969 5.101562 24.421875 C 5.105469 24.179688 5.214844 24.039062 5.648438 23.589844 C 6.046875 23.179688 6.589844 22.617188 7.050781 21.683594 C 7.925781 19.902344 7.878906 18.066406 7.753906 16.925781 C 9.738281 16.46875 11.054688 16.960938 11.820312 17.472656 C 12.863281 18.167969 13.335938 19.160156 13.429688 19.855469 C 13.675781 21.679688 13.257812 23.039062 12.246094 23.683594 L 12.222656 23.699219 C 11.839844 23.945312 11.730469 24.457031 11.976562 24.835938 C 12.140625 25.085938 12.417969 25.21875 12.699219 25.210938 C 12.839844 25.207031 12.984375 25.164062 13.117188 25.078125 L 13.132812 25.066406 C 14.046875 24.480469 15.515625 22.996094 15.058594 19.636719 C 14.875 18.273438 14.003906 16.953125 12.734375 16.105469 C 11.710938 15.421875 9.984375 14.753906 7.484375 15.300781 C 7.292969 14.546875 7.054688 14.027344 6.863281 13.617188 C 6.625 13.105469 6.519531 12.871094 6.589844 12.4375 C 6.851562 10.902344 8.882812 9.628906 10.613281 9.332031 C 13.410156 8.855469 16.507812 10.726562 17.664062 13.597656 C 18.910156 16.6875 17.277344 19.566406 16.9375 20.113281 C 16.699219 20.5 16.816406 21.007812 17.199219 21.246094 C 17.585938 21.484375 18.09375 21.367188 18.332031 20.980469 C 18.746094 20.316406 20.734375 16.808594 19.1875 12.984375 C 18.503906 11.285156 17.230469 9.804688 15.605469 8.820312 C 13.945312 7.808594 12.074219 7.417969 10.335938 7.714844 C 8.035156 8.109375 5.371094 9.800781 4.96875 12.164062 C 4.8125 13.097656 5.097656 13.714844 5.371094 14.308594 C 5.613281 14.828125 5.886719 15.417969 6.039062 16.488281 C 6.167969 17.375 6.429688 19.226562 5.574219 20.957031 C 5.226562 21.660156 4.824219 22.082031 4.464844 22.449219 " fill-opacity="1" fill-rule="nonzero"/><g clip-path="url(#4b5d73afdc)"><path fill="#017ea1" d="M 35.871094 33.882812 C 35.875 33.890625 35.882812 33.894531 35.886719 33.902344 C 36.179688 34.316406 36.785156 34.355469 37.121094 33.972656 C 38.425781 32.488281 39.460938 30.816406 40.203125 28.988281 C 41.058594 26.875 41.496094 24.644531 41.496094 22.355469 C 41.496094 20.066406 41.058594 17.835938 40.203125 15.722656 C 39.476562 13.9375 38.46875 12.292969 37.207031 10.835938 C 36.890625 10.472656 36.332031 10.464844 36.007812 10.824219 C 35.738281 11.121094 35.730469 11.574219 35.992188 11.875 C 41.214844 17.90625 41.195312 26.90625 35.925781 32.910156 C 35.6875 33.183594 35.664062 33.585938 35.871094 33.882812 " fill-opacity="1" fill-rule="nonzero"/></g><path fill="#017ea1" d="M 32.167969 15.324219 L 32.171875 15.328125 C 35.507812 19.230469 35.628906 24.914062 32.527344 28.945312 C 32.324219 29.210938 32.304688 29.574219 32.480469 29.855469 C 32.777344 30.339844 33.464844 30.371094 33.808594 29.921875 C 34.480469 29.042969 35.027344 28.082031 35.445312 27.054688 C 36.050781 25.5625 36.359375 23.980469 36.359375 22.355469 C 36.359375 20.730469 36.050781 19.148438 35.445312 17.652344 C 34.945312 16.425781 34.261719 15.296875 33.402344 14.285156 C 33.160156 14 32.75 13.917969 32.417969 14.089844 C 31.964844 14.324219 31.839844 14.914062 32.160156 15.3125 C 32.164062 15.316406 32.167969 15.320312 32.167969 15.324219 " fill-opacity="1" fill-rule="nonzero"/><path fill="#017ea1" d="M 28.648438 19.144531 C 29.9375 21.070312 29.9375 23.636719 28.652344 25.5625 C 28.433594 25.890625 28.492188 26.332031 28.785156 26.597656 C 29.148438 26.921875 29.714844 26.847656 29.988281 26.445312 C 30.304688 25.972656 30.5625 25.464844 30.761719 24.933594 C 31.070312 24.109375 31.226562 23.242188 31.226562 22.355469 C 31.226562 21.464844 31.070312 20.597656 30.761719 19.773438 C 30.5625 19.238281 30.300781 18.734375 29.984375 18.261719 C 29.710938 17.855469 29.144531 17.785156 28.78125 18.109375 C 28.488281 18.375 28.429688 18.816406 28.648438 19.144531 " fill-opacity="1" fill-rule="nonzero"/></svg>