<svg xmlns="http://www.w3.org/2000/svg" xmlns:xlink="http://www.w3.org/1999/xlink" width="56" zoomAndPan="magnify" viewBox="0 0 42 42" height="56" preserveAspectRatio="xMidYMid meet" version="1.0"><defs><clipPath id="5b0d5559c8"><path d="M 21 12.738281 L 31 12.738281 L 31 28 L 21 28 Z M 21 12.738281 " clip-rule="nonzero"/></clipPath><clipPath id="ae84ac90d0"><path d="M 9.816406 13 L 32.527344 13 L 32.527344 28.121094 L 9.816406 28.121094 Z M 9.816406 13 " clip-rule="nonzero"/></clipPath><clipPath id="9190e1b831"><path d="M 11 12.738281 L 21 12.738281 L 21 28 L 11 28 Z M 11 12.738281 " clip-rule="nonzero"/></clipPath></defs><path fill="#017ea1" d="M 29.222656 18.480469 C 29.21875 18.59375 29.132812 18.683594 29.03125 18.675781 C 28.738281 18.660156 28.449219 18.652344 28.167969 18.652344 C 25.238281 18.652344 23.457031 19.554688 22.476562 20.316406 C 22.445312 20.339844 22.40625 20.351562 22.371094 20.351562 C 22.3125 20.351562 22.253906 20.320312 22.21875 20.261719 C 22.160156 20.167969 22.179688 20.039062 22.265625 19.972656 C 23.289062 19.179688 25.140625 18.234375 28.167969 18.234375 C 28.457031 18.234375 28.753906 18.246094 29.050781 18.261719 C 29.148438 18.269531 29.230469 18.363281 29.222656 18.480469 " fill-opacity="1" fill-rule="nonzero"/><path fill="#017ea1" d="M 29.417969 16.554688 C 29.414062 16.667969 29.324219 16.757812 29.21875 16.75 C 28.921875 16.734375 28.621094 16.726562 28.332031 16.726562 C 25.320312 16.726562 23.488281 17.628906 22.484375 18.390625 C 22.453125 18.414062 22.414062 18.425781 22.375 18.425781 C 22.316406 18.425781 22.257812 18.394531 22.21875 18.335938 C 22.160156 18.242188 22.179688 18.113281 22.265625 18.046875 C 23.316406 17.253906 25.222656 16.308594 28.332031 16.308594 C 28.628906 16.308594 28.933594 16.316406 29.238281 16.335938 C 29.34375 16.339844 29.421875 16.4375 29.417969 16.554688 " fill-opacity="1" fill-rule="nonzero"/><path fill="#017ea1" d="M 29.417969 14.628906 C 29.414062 14.742188 29.324219 14.832031 29.21875 14.828125 C 28.921875 14.808594 28.621094 14.800781 28.332031 14.800781 C 25.320312 14.800781 23.488281 15.703125 22.484375 16.464844 C 22.453125 16.488281 22.414062 16.5 22.375 16.5 C 22.316406 16.5 22.257812 16.46875 22.21875 16.410156 C 22.160156 16.316406 22.179688 16.1875 22.265625 16.121094 C 23.316406 15.328125 25.222656 14.382812 28.332031 14.382812 C 28.628906 14.382812 28.933594 14.394531 29.238281 14.410156 C 29.34375 14.414062 29.421875 14.511719 29.417969 14.628906 " fill-opacity="1" fill-rule="nonzero"/><path fill="#017ea1" d="M 13.121094 18.480469 C 13.125 18.59375 13.214844 18.683594 13.316406 18.675781 C 13.605469 18.660156 13.894531 18.652344 14.175781 18.652344 C 17.109375 18.652344 18.890625 19.554688 19.871094 20.316406 C 19.898438 20.339844 19.9375 20.351562 19.972656 20.351562 C 20.03125 20.351562 20.089844 20.320312 20.125 20.261719 C 20.183594 20.167969 20.164062 20.039062 20.078125 19.972656 C 19.054688 19.179688 17.203125 18.234375 14.175781 18.234375 C 13.890625 18.234375 13.589844 18.246094 13.296875 18.261719 C 13.195312 18.269531 13.113281 18.363281 13.121094 18.480469 " fill-opacity="1" fill-rule="nonzero"/><path fill="#017ea1" d="M 12.925781 16.554688 C 12.929688 16.667969 13.019531 16.757812 13.125 16.75 C 13.425781 16.734375 13.722656 16.726562 14.011719 16.726562 C 17.023438 16.726562 18.855469 17.628906 19.859375 18.390625 C 19.894531 18.414062 19.929688 18.425781 19.96875 18.425781 C 20.027344 18.425781 20.085938 18.394531 20.125 18.335938 C 20.1875 18.242188 20.164062 18.113281 20.078125 18.046875 C 19.027344 17.253906 17.121094 16.308594 14.011719 16.308594 C 13.71875 16.308594 13.414062 16.316406 13.105469 16.335938 C 13 16.339844 12.921875 16.4375 12.925781 16.554688 " fill-opacity="1" fill-rule="nonzero"/><path fill="#017ea1" d="M 12.925781 14.628906 C 12.929688 14.742188 13.019531 14.832031 13.125 14.828125 C 13.425781 14.808594 13.722656 14.800781 14.011719 14.800781 C 17.023438 14.800781 18.855469 15.703125 19.859375 16.464844 C 19.894531 16.488281 19.929688 16.5 19.96875 16.5 C 20.027344 16.5 20.085938 16.46875 20.125 16.410156 C 20.1875 16.316406 20.164062 16.1875 20.078125 16.121094 C 19.027344 15.328125 17.121094 14.382812 14.011719 14.382812 C 13.71875 14.382812 13.414062 14.394531 13.105469 14.410156 C 13 14.414062 12.921875 14.511719 12.925781 14.628906 " fill-opacity="1" fill-rule="nonzero"/><g clip-path="url(#5b0d5559c8)"><path fill="#017ea1" d="M 21.765625 15.074219 C 21.902344 14.964844 22.054688 14.851562 22.214844 14.742188 C 23.328125 13.996094 25.355469 13.105469 28.699219 13.105469 C 29.238281 13.105469 29.792969 13.128906 30.355469 13.175781 L 29.5625 24.722656 C 28.984375 24.679688 28.417969 24.65625 27.878906 24.65625 C 25.570312 24.65625 23.683594 25.078125 22.273438 25.914062 C 22.09375 26.019531 21.921875 26.128906 21.765625 26.246094 Z M 22.46875 26.230469 C 23.511719 25.613281 25.207031 25.023438 27.878906 25.023438 C 28.507812 25.023438 29.183594 25.054688 29.914062 25.125 L 30.738281 13.089844 L 30.757812 12.839844 C 30.023438 12.769531 29.335938 12.738281 28.699219 12.738281 C 25.21875 12.738281 23.117188 13.6875 22 14.4375 C 21.746094 14.609375 21.542969 14.769531 21.386719 14.90625 L 21.386719 27.070312 C 21.621094 26.824219 21.96875 26.523438 22.46875 26.230469 " fill-opacity="1" fill-rule="nonzero"/></g><path fill="#017ea1" d="M 22.46875 24.167969 C 23.417969 23.40625 25.152344 22.5 27.996094 22.5 C 28.269531 22.5 28.550781 22.511719 28.832031 22.527344 C 28.933594 22.535156 29.015625 22.445312 29.023438 22.328125 C 29.027344 22.214844 28.949219 22.117188 28.851562 22.113281 C 28.5625 22.09375 28.277344 22.085938 27.996094 22.085938 C 25.054688 22.085938 23.257812 23.03125 22.265625 23.824219 C 22.179688 23.886719 22.160156 24.019531 22.21875 24.113281 C 22.25 24.171875 22.308594 24.203125 22.367188 24.203125 C 22.402344 24.203125 22.4375 24.191406 22.46875 24.167969 " fill-opacity="1" fill-rule="nonzero"/><path fill="#017ea1" d="M 22.371094 22.277344 C 22.40625 22.277344 22.445312 22.265625 22.476562 22.242188 C 23.457031 21.484375 25.238281 20.578125 28.167969 20.578125 C 28.449219 20.578125 28.738281 20.585938 29.03125 20.601562 C 29.132812 20.609375 29.21875 20.519531 29.222656 20.40625 C 29.230469 20.289062 29.148438 20.191406 29.050781 20.1875 C 28.753906 20.167969 28.457031 20.160156 28.167969 20.160156 C 25.140625 20.160156 23.289062 21.105469 22.265625 21.898438 C 22.179688 21.960938 22.160156 22.09375 22.21875 22.1875 C 22.253906 22.246094 22.3125 22.277344 22.371094 22.277344 " fill-opacity="1" fill-rule="nonzero"/><g clip-path="url(#ae84ac90d0)"><path fill="#017ea1" d="M 31.058594 13.117188 L 30.234375 25.148438 L 30.210938 25.46875 L 29.882812 25.4375 C 29.1875 25.371094 28.511719 25.335938 27.878906 25.335938 C 25.675781 25.335938 24.167969 25.742188 23.152344 26.222656 C 22.398438 26.578125 21.917969 26.976562 21.621094 27.285156 L 21.386719 27.53125 L 20.960938 27.53125 L 20.722656 27.285156 C 20.425781 26.976562 19.945312 26.578125 19.195312 26.222656 C 18.175781 25.742188 16.667969 25.335938 14.464844 25.335938 C 13.832031 25.335938 13.160156 25.371094 12.460938 25.4375 L 12.132812 25.46875 L 12.109375 25.148438 L 11.285156 13.117188 L 9.824219 13.011719 L 10.945312 26.34375 L 20.644531 28.121094 L 21.699219 28.121094 L 31.402344 26.34375 L 32.523438 13.011719 L 31.058594 13.117188 " fill-opacity="1" fill-rule="nonzero"/></g><g clip-path="url(#9190e1b831)"><path fill="#017ea1" d="M 13.644531 13.105469 C 16.988281 13.105469 19.015625 13.996094 20.128906 14.742188 C 20.289062 14.851562 20.441406 14.964844 20.582031 15.074219 L 20.582031 26.246094 C 20.421875 26.128906 20.25 26.019531 20.070312 25.914062 C 18.660156 25.078125 16.773438 24.65625 14.464844 24.65625 C 13.925781 24.65625 13.359375 24.679688 12.785156 24.722656 L 11.988281 13.175781 C 12.550781 13.128906 13.109375 13.105469 13.644531 13.105469 Z M 12.429688 25.125 C 13.164062 25.054688 13.839844 25.023438 14.464844 25.023438 C 17.136719 25.023438 18.832031 25.613281 19.875 26.230469 C 20.375 26.523438 20.722656 26.824219 20.960938 27.070312 L 20.960938 14.90625 C 20.800781 14.769531 20.597656 14.609375 20.34375 14.4375 C 19.226562 13.6875 17.125 12.738281 13.644531 12.738281 C 13.007812 12.738281 12.320312 12.769531 11.589844 12.839844 L 11.605469 13.089844 L 12.429688 25.125 " fill-opacity="1" fill-rule="nonzero"/></g><path fill="#017ea1" d="M 14.347656 22.085938 C 14.066406 22.085938 13.78125 22.09375 13.492188 22.113281 C 13.394531 22.117188 13.316406 22.214844 13.320312 22.328125 C 13.328125 22.445312 13.414062 22.535156 13.511719 22.527344 C 13.792969 22.511719 14.074219 22.5 14.347656 22.5 C 17.195312 22.5 18.925781 23.40625 19.875 24.167969 C 19.910156 24.191406 19.941406 24.203125 19.980469 24.203125 C 20.035156 24.203125 20.09375 24.171875 20.128906 24.113281 C 20.183594 24.019531 20.164062 23.886719 20.082031 23.824219 C 19.089844 23.03125 17.289062 22.085938 14.347656 22.085938 " fill-opacity="1" fill-rule="nonzero"/><path fill="#017ea1" d="M 13.316406 20.601562 C 13.605469 20.585938 13.894531 20.578125 14.175781 20.578125 C 17.109375 20.578125 18.890625 21.484375 19.871094 22.242188 C 19.898438 22.265625 19.9375 22.277344 19.972656 22.277344 C 20.03125 22.277344 20.089844 22.246094 20.125 22.1875 C 20.183594 22.09375 20.164062 21.960938 20.078125 21.898438 C 19.054688 21.105469 17.203125 20.160156 14.175781 20.160156 C 13.890625 20.160156 13.589844 20.167969 13.296875 20.1875 C 13.195312 20.191406 13.113281 20.289062 13.121094 20.40625 C 13.125 20.519531 13.214844 20.609375 13.316406 20.601562 " fill-opacity="1" fill-rule="nonzero"/></svg>